REM DIRINDEX 1\2,1\3,1\4
REM DIRNAME folder01,folder02,folder03,folder04
TITLE ""
FILE "DISC3Track18.mp3" MP3
  TRACK 01 AUDIO
    TITLE "0:"
    INDEX 01 00:00:00
  TRACK 02 AUDIO
    TITLE "4:cjc105_4994"
    INDEX 01 00:00:13
  TRACK 03 AUDIO
    TITLE "0:"
    INDEX 01 00:04:07
  TRACK 04 AUDIO
    TITLE "4:cjc105_4995"
    INDEX 01 00:04:33
  TRACK 05 AUDIO
    TITLE "0:"
    INDEX 01 00:06:35
  TRACK 06 AUDIO
    TITLE "2:cjc105_4996"
    INDEX 01 00:07:02
  TRACK 07 AUDIO
    TITLE "3:cjc105_4997"
    INDEX 01 00:08:30
  TRACK 08 AUDIO
    TITLE "0:"
    INDEX 01 00:10:02
  TRACK 09 AUDIO
    TITLE "2:cjc105_4998"
    INDEX 01 00:10:18
  TRACK 10 AUDIO
    TITLE "3:cjc105_4999"
    INDEX 01 00:11:37
  TRACK 11 AUDIO
    TITLE "0:"
    INDEX 01 00:12:67
  TRACK 12 AUDIO
    TITLE "2:cjc105_5000"
    INDEX 01 00:13:12
  TRACK 13 AUDIO
    TITLE "3:cjc105_5001"
    INDEX 01 00:14:51
  TRACK 14 AUDIO
    TITLE "0:"
    INDEX 01 00:16:10
  TRACK 15 AUDIO
    TITLE "2:cjc105_5002"
    INDEX 01 00:16:32
  TRACK 16 AUDIO
    TITLE "3:cjc105_5003"
    INDEX 01 00:18:13
  TRACK 17 AUDIO
    TITLE "0:"
    INDEX 01 00:19:28
  TRACK 18 AUDIO
    TITLE "2:cjc105_5004"
    INDEX 01 00:19:50
  TRACK 19 AUDIO
    TITLE "3:cjc105_5005"
    INDEX 01 00:20:69
  TRACK 20 AUDIO
    TITLE "0:"
    INDEX 01 00:22:29
  TRACK 21 AUDIO
    TITLE "2:cjc105_5006"
    INDEX 01 00:22:46
  TRACK 22 AUDIO
    TITLE "3:cjc105_5007"
    INDEX 01 00:24:33
  TRACK 23 AUDIO
    TITLE "0:"
    INDEX 01 00:27:02
  TRACK 24 AUDIO
    TITLE "2:cjc105_5008"
    INDEX 01 00:27:20
  TRACK 25 AUDIO
    TITLE "3:cjc105_5009"
    INDEX 01 00:28:59
  TRACK 26 AUDIO
    TITLE "0:"
    INDEX 01 00:30:38
  TRACK 27 AUDIO
    TITLE "2:cjc105_5010"
    INDEX 01 00:30:57
  TRACK 28 AUDIO
    TITLE "3:cjc105_5011"
    INDEX 01 00:32:37
  TRACK 29 AUDIO
    TITLE "0:"
    INDEX 01 00:34:02
  TRACK 30 AUDIO
    TITLE "2:cjc105_5012"
    INDEX 01 00:34:16
  TRACK 31 AUDIO
    TITLE "3:cjc105_5013"
    INDEX 01 00:35:68
  TRACK 32 AUDIO
    TITLE "0:"
    INDEX 01 00:37:52
  TRACK 33 AUDIO
    TITLE "2:cjc105_5014"
    INDEX 01 00:37:73
  TRACK 34 AUDIO
    TITLE "3:cjc105_5015"
    INDEX 01 00:39:11
  TRACK 35 AUDIO
    TITLE "0:"
    INDEX 01 00:40:28
  TRACK 36 AUDIO
    TITLE "2:cjc105_5016"
    INDEX 01 00:40:46
  TRACK 37 AUDIO
    TITLE "3:cjc105_5017"
    INDEX 01 00:42:31
  TRACK 38 AUDIO
    TITLE "0:"
    INDEX 01 00:44:11
  TRACK 39 AUDIO
    TITLE "2:cjc105_5018"
    INDEX 01 00:44:30
  TRACK 40 AUDIO
    TITLE "3:cjc105_5019"
    INDEX 01 00:45:41
  TRACK 41 AUDIO
    TITLE "0:"
    INDEX 01 00:46:64
  TRACK 42 AUDIO
    TITLE "2:cjc105_5020"
    INDEX 01 00:47:03
  TRACK 43 AUDIO
    TITLE "3:cjc105_5021"
    INDEX 01 00:48:16
  TRACK 44 AUDIO
    TITLE "0:"
    INDEX 01 00:49:41
  TRACK 45 AUDIO
    TITLE "2:cjc105_5022"
    INDEX 01 00:49:61
  TRACK 46 AUDIO
    TITLE "3:cjc105_5023"
    INDEX 01 00:51:03
  TRACK 47 AUDIO
    TITLE "0:"
    INDEX 01 00:52:47
  TRACK 48 AUDIO
    TITLE "2:cjc105_5024"
    INDEX 01 00:52:67
  TRACK 49 AUDIO
    TITLE "3:cjc105_5025"
    INDEX 01 00:53:74
  TRACK 50 AUDIO
    TITLE "0:"
    INDEX 01 00:55:16
  TRACK 51 AUDIO
    TITLE "2:cjc105_5026"
    INDEX 01 00:55:36
  TRACK 52 AUDIO
    TITLE "3:cjc105_5027"
    INDEX 01 00:56:55
  TRACK 53 AUDIO
    TITLE "0:"
    INDEX 01 00:57:64
  TRACK 54 AUDIO
    TITLE "2:cjc105_5028"
    INDEX 01 00:58:03
  TRACK 55 AUDIO
    TITLE "3:cjc105_5029"
    INDEX 01 00:59:59
  TRACK 56 AUDIO
    TITLE "0:"
    INDEX 01 01:01:33
  TRACK 57 AUDIO
    TITLE "2:cjc105_5030"
    INDEX 01 01:01:46
  TRACK 58 AUDIO
    TITLE "3:cjc105_5031"
    INDEX 01 01:03:22
  TRACK 59 AUDIO
    TITLE "0:"
    INDEX 01 01:05:01
  TRACK 60 AUDIO
    TITLE "2:cjc105_5032"
    INDEX 01 01:05:22
  TRACK 61 AUDIO
    TITLE "3:cjc105_5033"
    INDEX 01 01:07:00
  TRACK 62 AUDIO
    TITLE "0:"
    INDEX 01 01:08:44
  TRACK 63 AUDIO
    TITLE "2:cjc105_5034"
    INDEX 01 01:08:62
  TRACK 64 AUDIO
    TITLE "3:cjc105_5035"
    INDEX 01 01:10:39
  TRACK 65 AUDIO
    TITLE "0:"
    INDEX 01 01:12:23
  TRACK 66 AUDIO
    TITLE "2:cjc105_5036"
    INDEX 01 01:12:40
  TRACK 67 AUDIO
    TITLE "3:cjc105_5037"
    INDEX 01 01:14:04
  TRACK 68 AUDIO
    TITLE "0:"
    INDEX 01 01:15:46
  TRACK 69 AUDIO
    TITLE "2:cjc105_5038"
    INDEX 01 01:15:60
  TRACK 70 AUDIO
    TITLE "3:cjc105_5039"
    INDEX 01 01:17:26
  TRACK 71 AUDIO
    TITLE "0:"
    INDEX 01 01:18:47
  TRACK 72 AUDIO
    TITLE "2:cjc105_5040"
    INDEX 01 01:18:62
  TRACK 73 AUDIO
    TITLE "3:cjc105_5041"
    INDEX 01 01:20:48
  TRACK 74 AUDIO
    TITLE "0:"
    INDEX 01 01:21:55
  TRACK 75 AUDIO
    TITLE "2:cjc105_5042"
    INDEX 01 01:22:01
  TRACK 76 AUDIO
    TITLE "3:cjc105_5043"
    INDEX 01 01:23:07
  TRACK 77 AUDIO
    TITLE "0:"
    INDEX 01 01:25:17
  TRACK 78 AUDIO
    TITLE "2:cjc105_5044"
    INDEX 01 01:25:37
  TRACK 79 AUDIO
    TITLE "3:cjc105_5045"
    INDEX 01 01:27:18
  TRACK 80 AUDIO
    TITLE "0:"
    INDEX 01 01:28:31
  TRACK 81 AUDIO
    TITLE "2:cjc105_5046"
    INDEX 01 01:28:51
  TRACK 82 AUDIO
    TITLE "3:cjc105_5047"
    INDEX 01 01:29:60
  TRACK 83 AUDIO
    TITLE "0:"
    INDEX 01 01:30:62
  TRACK 84 AUDIO
    TITLE "2:cjc105_5048"
    INDEX 01 01:31:06
  TRACK 85 AUDIO
    TITLE "3:cjc105_5049"
    INDEX 01 01:32:37
  TRACK 86 AUDIO
    TITLE "0:"
    INDEX 01 01:33:58
  TRACK 87 AUDIO
    TITLE "2:cjc105_5050"
    INDEX 01 01:34:05
  TRACK 88 AUDIO
    TITLE "3:cjc105_5051"
    INDEX 01 01:35:41
  TRACK 89 AUDIO
    TITLE "0:"
    INDEX 01 01:36:64
  TRACK 90 AUDIO
    TITLE "2:cjc105_5052"
    INDEX 01 01:37:09
  TRACK 91 AUDIO
    TITLE "3:cjc105_5053"
    INDEX 01 01:38:57
  TRACK 92 AUDIO
    TITLE "0:"
    INDEX 01 01:40:25
  TRACK 93 AUDIO
    TITLE "2:cjc105_5054"
    INDEX 01 01:40:44
  TRACK 94 AUDIO
    TITLE "3:cjc105_5055"
    INDEX 01 01:41:67
  TRACK 95 AUDIO
    TITLE "0:"
    INDEX 01 01:43:25
  TRACK 96 AUDIO
    TITLE "2:cjc105_5056"
    INDEX 01 01:43:47
  TRACK 97 AUDIO
    TITLE "3:cjc105_5057"
    INDEX 01 01:44:62
  TRACK 98 AUDIO
    TITLE "0:"
    INDEX 01 01:46:23
  TRACK 99 AUDIO
    TITLE "2:cjc105_5058"
    INDEX 01 01:46:41
  TRACK 100 AUDIO
    TITLE "3:cjc105_5059"
    INDEX 01 01:48:30
  TRACK 101 AUDIO
    TITLE "0:"
    INDEX 01 01:50:17
  TRACK 102 AUDIO
    TITLE "2:cjc105_5060"
    INDEX 01 01:50:37
  TRACK 103 AUDIO
    TITLE "3:cjc105_5061"
    INDEX 01 01:52:14
  TRACK 104 AUDIO
    TITLE "0:"
    INDEX 01 01:53:49
  TRACK 105 AUDIO
    TITLE "2:cjc105_5062"
    INDEX 01 01:53:69
  TRACK 106 AUDIO
    TITLE "3:cjc105_5063"
    INDEX 01 01:55:24
  TRACK 107 AUDIO
    TITLE "0:"
    INDEX 01 01:56:61
  TRACK 108 AUDIO
    TITLE "2:cjc105_5064"
    INDEX 01 01:57:06
  TRACK 109 AUDIO
    TITLE "3:cjc105_5065"
    INDEX 01 01:58:23
  TRACK 110 AUDIO
    TITLE "0:"
    INDEX 01 01:59:44
  TRACK 111 AUDIO
    TITLE "2:cjc105_5066"
    INDEX 01 01:59:63
  TRACK 112 AUDIO
    TITLE "3:cjc105_5067"
    INDEX 01 02:01:19
  TRACK 113 AUDIO
    TITLE "0:"
    INDEX 01 02:03:04
  TRACK 114 AUDIO
    TITLE "2:cjc105_5068"
    INDEX 01 02:03:24
  TRACK 115 AUDIO
    TITLE "3:cjc105_5069"
    INDEX 01 02:05:19
  TRACK 116 AUDIO
    TITLE "0:"
    INDEX 01 02:06:67
  TRACK 117 AUDIO
    TITLE "2:cjc105_5070"
    INDEX 01 02:07:12
  TRACK 118 AUDIO
    TITLE "3:cjc105_5071"
    INDEX 01 02:08:70
  TRACK 119 AUDIO
    TITLE "0:"
    INDEX 01 02:10:55
  TRACK 120 AUDIO
    TITLE "2:cjc105_5072"
    INDEX 01 02:11:00
  TRACK 121 AUDIO
    TITLE "3:cjc105_5073"
    INDEX 01 02:12:27
  TRACK 122 AUDIO
    TITLE "0:"
    INDEX 01 02:13:50
  TRACK 123 AUDIO
    TITLE "2:cjc105_5074"
    INDEX 01 02:13:69
  TRACK 124 AUDIO
    TITLE "3:cjc105_5075"
    INDEX 01 02:15:35
  TRACK 125 AUDIO
    TITLE "0:"
    INDEX 01 02:17:10
  TRACK 126 AUDIO
    TITLE "2:cjc105_5076"
    INDEX 01 02:17:32
  TRACK 127 AUDIO
    TITLE "3:cjc105_5077"
    INDEX 01 02:18:70
  TRACK 128 AUDIO
    TITLE "0:"
    INDEX 01 02:20:38
  TRACK 129 AUDIO
    TITLE "2:cjc105_5078"
    INDEX 01 02:20:56
  TRACK 130 AUDIO
    TITLE "3:cjc105_5079"
    INDEX 01 02:22:33
  TRACK 131 AUDIO
    TITLE "0:"
    INDEX 01 02:24:04
  TRACK 132 AUDIO
    TITLE "2:cjc105_5080"
    INDEX 01 02:24:24
  TRACK 133 AUDIO
    TITLE "3:cjc105_5081"
    INDEX 01 02:25:45
  TRACK 134 AUDIO
    TITLE "0:"
    INDEX 01 02:27:20
  TRACK 135 AUDIO
    TITLE "2:cjc105_5082"
    INDEX 01 02:27:38
  TRACK 136 AUDIO
    TITLE "3:cjc105_5083"
    INDEX 01 02:28:55
  TRACK 137 AUDIO
    TITLE "0:"
    INDEX 01 02:30:13
